<?xml version="1.0" standalone="no"?><!DOCTYPE svg PUBLIC "-//W3C//DTD SVG 1.1//EN" "http://www.w3.org/Graphics/SVG/1.1/DTD/svg11.dtd"><svg xmlns:xlink="http://www.w3.org/1999/xlink" version="1.1" style="font-family:'lucida grande', 'lucida sans unicode', arial, helvetica, sans-serif;font-size:12px;" xmlns="http://www.w3.org/2000/svg" width="600" height="400"><desc>Created with Highcharts 4.2.7</desc><defs><clipPath id="highcharts-9"><rect x="-100" y="-100" width="600" height="800"></rect></clipPath></defs><rect x="100" y="100" width="400" height="200" fill="#ffffff"></rect><g style="stroke:rgba(255,255,255,0);"><path fill="rgb(230,230,230)" fill-opacity="0" d="M 472.4799362870116 122.72951061916896 L 465.43945087205657 286.761875304134 L 465.5327311276494 286.4914005774999 L 472.5718137214932 122.57263418554082 Z" stroke-linejoin="round"></path><path fill="rgb(255,255,255)" fill-opacity="0" d="M 472.4799362870116 122.72951061916896 L 472.5718137214932 122.57263418554082 L 150.46583573270354 107.00517024572751 L 150.15371205435258 107.1391755409912 Z" stroke-linejoin="round"></path><path fill="rgb(255,255,255)" fill-opacity="0" d="M 155.82426326037148 259.79959584685514 L 465.43945087205657 286.761875304134 L 472.4799362870116 122.72951061916896 L 150.15371205435258 107.1391755409912 Z" stroke-linejoin="round"></path></g><g style="stroke:rgba(255,255,255,0);"><path fill="rgb(255,255,255)" fill-opacity="0" d="M 134.73259479086005 114.12790803177226 L 150.89673621399135 107.17511427246589 L 150.15371205435258 107.1391755409912 L 133.96557338433323 114.08929324339209 Z" stroke-linejoin="round"></path><path fill="rgb(255,255,255)" fill-opacity="0" d="M 140.46943018448601 271.8399313519729 L 141.20762491452084 271.90673440852953 L 134.73259479086005 114.12790803177226 L 133.96557338433323 114.08929324339209 Z" stroke-linejoin="round"></path><path fill="rgb(230,230,230)" fill-opacity="0" d="M 134.73259479086005 114.12790803177226 L 141.20762491452084 271.90673440852953 L 156.54019585820689 259.86194154418445 L 150.89673621399135 107.17511427246589 Z" stroke-linejoin="round"></path></g><g style="stroke:rgba(255,255,255,0);"><path fill="rgb(230,230,230)" fill-opacity="0" d="M 460.62854547827476 300 L 460.59468556207435 300.8097203115819 L 465.43945087205657 286.761875304134 L 465.47305520262046 285.9789466449323 Z" stroke-linejoin="round"></path><path fill="rgb(255,255,255)" fill-opacity="0" d="M 141.20762491452084 271.90673440852953 L 460.59468556207435 300.8097203115819 L 460.62854547827476 300 L 141.1766669189877 271.1523724814172 Z" stroke-linejoin="round"></path><path fill="rgb(255,255,255)" fill-opacity="0" d="M 460.62854547827476 300 L 465.47305520262046 285.9789466449323 L 156.5131765492391 259.1309196495567 L 141.1766669189877 271.1523724814172 Z" stroke-linejoin="round"></path></g><path fill="rgb(255, 255, 255)" fill-opacity=" .5" d="M 150.52518902142504 107.15714320838863 L 150.52518902142504 107.15714320838863 L 156.15511273614882 259.0998045838666 L 140.80746576639794 271.1190323195832 L 200.77746787349216 276.5345343065374 L 214.2860640513021 264.15127391049407 L 210.87980932683882 110.07638676766666 L 210.87980932683882 110.07638676766666"></path><path fill="rgb(255, 255, 255)" fill-opacity=" .5" d="M 273.11673453519336 113.08667400241974 L 273.11673453519336 113.08667400241974 L 274.1596383910426 269.35417387015644 L 262.6103529390524 282.1182611727408 L 326.39429214001893 287.8781750853958 L 335.855387469709 274.71541735582684 L 337.32541587385197 116.19233150633748 L 337.32541587385197 116.19233150633748"></path><path fill="rgb(255, 255, 255)" fill-opacity=" .5" d="M 403.6010636882388 119.39796443120855 L 403.6010636882388 119.39796443120855 L 399.4577799287153 280.2423445321079 L 392.223110094265 293.8227487372933 L 460.1967453579274 299.9610069313399 L 465.0565871799745 285.94275636429313 L 472.0451185089787 122.70847927158434 L 472.0451185089787 122.70847927158434"></path><g class="highcharts-grid"></g><g class="highcharts-grid"></g><g class="highcharts-grid"><path fill="none" d="M 150.52518902142504 107.15714320838863 L 150.52518902142504 107.15714320838863 L 156.15511273614882 259.0998045838666 L 140.80746576639794 271.1190323195832" stroke="#C0C0C0" stroke-width="1" opacity="1"></path><path fill="none" d="M 210.87980932683882 110.07638676766666 L 210.87980932683882 110.07638676766666 L 214.2860640513021 264.15127391049407 L 200.77746787349216 276.5345343065374" stroke="#C0C0C0" stroke-width="1" opacity="1"></path><path fill="none" d="M 273.11673453519336 113.08667400241974 L 273.11673453519336 113.08667400241974 L 274.1596383910426 269.35417387015644 L 262.6103529390524 282.1182611727408" stroke="#C0C0C0" stroke-width="1" opacity="1"></path><path fill="none" d="M 337.32541587385197 116.19233150633748 L 337.32541587385197 116.19233150633748 L 335.855387469709 274.71541735582684 L 326.39429214001893 287.8781750853958" stroke="#C0C0C0" stroke-width="1" opacity="1"></path><path fill="none" d="M 403.6010636882388 119.39796443120855 L 403.6010636882388 119.39796443120855 L 399.4577799287153 280.2423445321079 L 392.223110094265 293.8227487372933" stroke="#C0C0C0" stroke-width="1" opacity="1"></path><path fill="none" d="M 472.9148429980453 122.75054626828161 L 472.9148429980453 122.75054626828161 L 465.8896049444867 286.0151440268166 L 461.06043354652184 300.0390010106646" stroke="#C0C0C0" stroke-width="1" opacity="1"></path></g><rect x="100" y="100" width="400" height="200" stroke="#026FC1" stroke-width="2" fill="none"></rect><g class="highcharts-axis"><path fill="none" d="M 0 0" stroke="#C0D0E0" stroke-width="1"></path></g><g class="highcharts-axis"></g><g class="highcharts-axis"><path fill="none" d="M 140.80746576639794 271.1190323195832 L 141.11719286384343 278.64879834600345" stroke="#C0D0E0" stroke-width="1" opacity="1"></path><path fill="none" d="M 200.77746787349216 276.5345343065374 L 200.97346324376105 284.16853762237133" stroke="#C0D0E0" stroke-width="1" opacity="1"></path><path fill="none" d="M 262.6103529390524 282.1182611727408 L 262.6853539420863 289.85939581892137" stroke="#C0D0E0" stroke-width="1" opacity="1"></path><path fill="none" d="M 326.39429214001893 287.8781750853958 L 326.34051344190846 295.729455577147" stroke="#C0D0E0" stroke-width="1" opacity="1"></path><path fill="none" d="M 392.223110094265 293.8227487372933 L 392.03219851884205 301.7873167159793" stroke="#C0D0E0" stroke-width="1" opacity="1"></path><path fill="none" d="M 461.06043354652184 300.0390010106646 L 460.72153242981005 308.1216107147435" stroke="#C0D0E0" stroke-width="1" opacity="1"></path></g><g class="highcharts-series-group"><g class="highcharts-series highcharts-series-1" transform="translate(500,300) rotate(90) scale(-1,1) scale(1 1)" width="400" height="200" clip-path="url(#highcharts-9)"></g><g class="highcharts-markers highcharts-series-1" transform="translate(500,300) rotate(90) scale(-1,1) scale(1 1)" width="400" height="200" clip-path="none"></g><g class="highcharts-series highcharts-series-0" transform="translate(500,300) rotate(90) scale(-1,1) scale(1 1)" width="400" height="200" clip-path="url(#highcharts-9)"><g stroke="#ea1bed" stroke-width="1" r="0"><path fill="rgb(255,52,255)" d="M 65.98721094789175 106.1977799861488 L 71.8883941397645 102.49027106993589 L 33.46862522211319 103.44763744294079 L 26.904936950327865 107.13604137343322 Z" stroke-linejoin="round"></path><path fill="#ea1bed" d="M 48.45166490005553 359.6681697922399 L 85.3508914603902 361.18284668741074 L 65.98721094789175 106.1977799861488 L 26.904936950327865 107.13604137343322 Z" stroke-linejoin="round"></path><path fill="rgb(209,2,212)" d="M 65.98721094789175 106.1977799861488 L 85.3508914603902 361.18284668741074 L 90.55903911588501 353.2357578607846 L 71.8883941397645 102.49027106993589 Z" stroke-linejoin="round"></path></g><g stroke="#32b4b4" stroke-width="1" r="0"><path fill="rgb(75,205,205)" d="M 156.03263522562955 212.32524810887014 L 160.23692958221127 206.66960084432074 L 121.13878535787177 206.6044327157912 L 116.24566577903605 212.20256851239523 Z" stroke-linejoin="round"></path><path fill="#32b4b4" d="M 126.12327998291076 362.85651306507884 L 164.51814176381376 364.4325843124726 L 156.03263522562955 212.32524810887014 L 116.24566577903605 212.20256851239523 Z" stroke-linejoin="round"></path><path fill="rgb(25,155,155)" d="M 156.03263522562955 212.32524810887014 L 164.51814176381376 364.4325843124726 L 168.41660397290593 356.2701324722375 L 160.23692958221127 206.66960084432074 Z" stroke-linejoin="round"></path></g></g><g class="highcharts-markers highcharts-series-0" transform="translate(500,300) rotate(90) scale(-1,1) scale(1 1)" width="400" height="200" clip-path="none"></g></g><text x="300" text-anchor="middle" class="highcharts-title" style="color:#000000;font-size:10px;font-family:'arial', sans-serif;text-transform:none;fill:#000000;width:536px;" y="17"><tspan>Prog</tspan></text><g class="highcharts-data-labels highcharts-series-1" transform="translate(100,100) scale(1 1)" opacity="1"></g><g class="highcharts-data-labels highcharts-series-0" transform="translate(100,100) scale(1 1)" opacity="1"><g style="cursor:pointer;" transform="translate(192,40)"><text x="5" style="font-size:10px;font-weight:bold;font-family:'arial', sans-serif;color:#000000;text-shadow:0 0 6px #ffffff, 0 0 3px #ffffff;fill:#000000;text-rendering:geometricprecision;" y="15"><tspan>12</tspan></text></g><g style="cursor:pointer;" transform="translate(320,140)"><text x="5" style="font-size:10px;font-weight:bold;font-family:'arial', sans-serif;color:#000000;text-shadow:0 0 6px #ffffff, 0 0 3px #ffffff;fill:#000000;text-rendering:geometricprecision;" y="15"><tspan>20</tspan></text></g></g><g class="highcharts-legend" transform="translate(259,356)"><g><g><g class="highcharts-legend-item" transform="translate(8,3)"><text x="21" style="color:#333;font-size:9pt;font-weight:normal;cursor:pointer;font-family:'lucida grande','lucida sans unicode',arial,helvetica,sans-serif;text-transform:none;fill:#333;" text-anchor="start" y="15"><tspan>Series 1</tspan></text><rect x="0" y="4" width="16" height="12" fill="#CCC"></rect></g></g></g></g><g class="highcharts-axis-labels highcharts-xaxis-labels"><text x="125.20337555980575" style="color:#000000;cursor:default;font-size:10px;font-family:'arial', sans-serif;text-transform:none;font-weight:normal;fill:#000000;width:80px;text-overflow:clip;" text-anchor="end" transform="translate(0,0)" y="157.86576946092129" z="40.864304823479465" opacity="1"><tspan>PHP</tspan></text><text x="128.63158469573509" style="color:#000000;cursor:default;font-size:10px;font-family:'arial', sans-serif;text-transform:none;font-weight:normal;fill:#000000;width:80px;text-overflow:clip;" text-anchor="end" transform="translate(0,0)" y="235.9900082746979" z="62.73043752583875" opacity="1"><tspan>HTML</tspan></text></g><g class="highcharts-axis-labels highcharts-zaxis-labels"></g><g class="highcharts-axis-labels highcharts-yaxis-labels"><text x="141.73207042231593" style="color:#000000;cursor:default;font-size:10px;font-family:'arial', sans-serif;text-transform:none;font-weight:normal;fill:#000000;width:70px;text-overflow:clip;" text-anchor="middle" transform="translate(0,0)" y="284.68604124389134" z="73.3379417835842" opacity="1"><tspan>0</tspan></text><text x="201.50896666704796" style="color:#000000;cursor:default;font-size:10px;font-family:'arial', sans-serif;text-transform:none;font-weight:normal;fill:#000000;width:70px;text-overflow:clip;" text-anchor="middle" transform="translate(0,0)" y="290.2896127341356" z="56.44109194496593" opacity="1"><tspan>5</tspan></text><text x="263.1362324242714" style="color:#000000;cursor:default;font-size:10px;font-family:'arial', sans-serif;text-transform:none;font-weight:normal;fill:#000000;width:70px;text-overflow:clip;" text-anchor="middle" transform="translate(0,0)" y="296.0666405009346" z="39.54424210634769" opacity="1"><tspan>10</tspan></text><text x="326.7011345018537" style="color:#000000;cursor:default;font-size:10px;font-family:'arial', sans-serif;text-transform:none;font-weight:normal;fill:#000000;width:70px;text-overflow:clip;" text-anchor="middle" transform="translate(0,0)" y="302.02530505929224" z="22.647392267729426" opacity="1"><tspan>15</tspan></text><text x="392.2965149026494" style="color:#000000;cursor:default;font-size:10px;font-family:'arial', sans-serif;text-transform:none;font-weight:normal;fill:#000000;width:70px;text-overflow:clip;" text-anchor="middle" transform="translate(0,0)" y="308.1743095509401" z="5.750542429111171" opacity="1"><tspan>20</tspan></text><text x="460.02124327748095" style="color:#000000;cursor:default;font-size:10px;font-family:'arial', sans-serif;text-transform:none;font-weight:normal;fill:#000000;width:70px;text-overflow:clip;" text-anchor="middle" transform="translate(0,0)" y="314.5229221579251" z="-11.146307409507088" opacity="1"><tspan>25</tspan></text></g><g class="highcharts-tooltip" display="none" style="cursor:default;padding:0;pointer-events:none;white-space:nowrap;" transform="translate(0,0)"><path fill="none" d="M 3.5 0.5 L 13.5 0.5 C 16.5 0.5 16.5 0.5 16.5 3.5 L 16.5 13.5 C 16.5 16.5 16.5 16.5 13.5 16.5 L 3.5 16.5 C 0.5 16.5 0.5 16.5 0.5 13.5 L 0.5 3.5 C 0.5 0.5 0.5 0.5 3.5 0.5"  stroke="black" stroke-opacity="0.049999999999999996" stroke-width="5" transform="translate(1, 1)"></path><path fill="none" d="M 3.5 0.5 L 13.5 0.5 C 16.5 0.5 16.5 0.5 16.5 3.5 L 16.5 13.5 C 16.5 16.5 16.5 16.5 13.5 16.5 L 3.5 16.5 C 0.5 16.5 0.5 16.5 0.5 13.5 L 0.5 3.5 C 0.5 0.5 0.5 0.5 3.5 0.5"  stroke="black" stroke-opacity="0.09999999999999999" stroke-width="3" transform="translate(1, 1)"></path><path fill="none" d="M 3.5 0.5 L 13.5 0.5 C 16.5 0.5 16.5 0.5 16.5 3.5 L 16.5 13.5 C 16.5 16.5 16.5 16.5 13.5 16.5 L 3.5 16.5 C 0.5 16.5 0.5 16.5 0.5 13.5 L 0.5 3.5 C 0.5 0.5 0.5 0.5 3.5 0.5"  stroke="black" stroke-opacity="0.15" stroke-width="1" transform="translate(1, 1)"></path><path fill="rgb(255, 255, 255)" fill-opacity=" 0.85" d="M 3.5 0.5 L 13.5 0.5 C 16.5 0.5 16.5 0.5 16.5 3.5 L 16.5 13.5 C 16.5 16.5 16.5 16.5 13.5 16.5 L 3.5 16.5 C 0.5 16.5 0.5 16.5 0.5 13.5 L 0.5 3.5 C 0.5 0.5 0.5 0.5 3.5 0.5"></path><text x="8" style="font-size:12px;color:#000000;fill:#000000;" y="20"></text></g><text x="590" text-anchor="end" style="cursor:pointer;color:#909090;font-size:9px;fill:#909090;" y="395">meta-chart.com</text></svg>